<svg xmlns="http://www.w3.org/2000/svg" xmlns:xlink="http://www.w3.org/1999/xlink" width="500" zoomAndPan="magnify" viewBox="0 0 375 374.999991" height="500" preserveAspectRatio="xMidYMid meet" version="1.0"><defs><g/><clipPath id="2030048e50"><path d="M 109.289062 121.625 L 266 121.625 L 266 249.875 L 109.289062 249.875 Z M 109.289062 121.625 " clip-rule="nonzero"/></clipPath></defs><g clip-path="url(#2030048e50)"><path fill="#9f3811" d="M 260.644531 171.101562 C 259.429688 173.625 257.132812 175.765625 254.796875 176.554688 C 253.824219 176.882812 253.304688 177.933594 253.632812 178.902344 C 253.894531 179.675781 254.613281 180.164062 255.386719 180.164062 C 255.582031 180.164062 255.785156 180.132812 255.980469 180.066406 C 256.601562 179.855469 257.210938 179.570312 257.804688 179.246094 C 251.054688 189.691406 232.535156 203.304688 214.835938 212.863281 C 199.003906 221.421875 166 233.46875 142.765625 224.378906 C 132.925781 220.53125 126.097656 213.1875 122.460938 202.546875 C 122.207031 201.820312 122.628906 201.351562 122.820312 201.183594 C 123.011719 201.019531 123.511719 200.667969 124.191406 201.003906 C 141.839844 209.714844 174.832031 204.921875 193.421875 190.953125 C 212.773438 176.402344 217.066406 156.984375 220.859375 139.859375 C 221.214844 138.242188 221.566406 136.640625 221.929688 135.054688 C 222.464844 132.722656 224.359375 131.980469 226 132.265625 C 227.757812 132.574219 229.660156 134.160156 229.230469 137.605469 C 228.75 141.433594 229.054688 150.152344 231.9375 153.9375 C 233.75 156.320312 235.867188 157.117188 238.800781 156.527344 C 243.460938 155.597656 250.875 151.386719 253.804688 149.347656 C 255.359375 148.261719 257.113281 148.941406 258.160156 150.09375 C 259.261719 151.300781 259.933594 153.445312 258.195312 155.496094 C 255.746094 158.378906 253.050781 159.660156 250.199219 161.003906 C 249.648438 161.269531 249.09375 161.53125 248.542969 161.800781 C 247.628906 162.253906 247.253906 163.371094 247.707031 164.285156 C 248.160156 165.203125 249.277344 165.578125 250.195312 165.121094 C 250.726562 164.859375 251.257812 164.609375 251.789062 164.355469 C 254.765625 162.945312 257.847656 161.46875 260.726562 158.214844 C 261.1875 159.464844 261.257812 160.675781 260.921875 161.863281 C 259.941406 165.339844 255.769531 168.113281 252.199219 169.550781 C 251.246094 169.9375 250.789062 171.011719 251.167969 171.964844 C 251.464844 172.6875 252.160156 173.128906 252.894531 173.128906 C 253.121094 173.128906 253.355469 173.078125 253.582031 172.988281 C 255.042969 172.402344 258.8125 170.691406 261.59375 167.746094 C 261.449219 169.089844 261.070312 170.226562 260.644531 171.101562 Z M 252.867188 202.546875 C 249.234375 213.1875 242.398438 220.53125 232.5625 224.378906 C 221.207031 228.824219 207.511719 228.207031 194.632812 225.421875 C 203.304688 222.582031 211.003906 219.152344 216.597656 216.125 C 221.910156 213.261719 228.308594 209.449219 234.671875 205.132812 C 240.851562 204.621094 246.523438 203.28125 251.136719 201.003906 C 251.8125 200.667969 252.320312 201.019531 252.507812 201.183594 C 252.699219 201.351562 253.117188 201.820312 252.867188 202.546875 Z M 117.535156 179.25 C 118.128906 179.570312 118.730469 179.859375 119.351562 180.066406 C 119.542969 180.132812 119.746094 180.164062 119.945312 180.164062 C 120.714844 180.164062 121.4375 179.675781 121.695312 178.902344 C 122.023438 177.933594 121.503906 176.882812 120.53125 176.554688 C 118.195312 175.765625 115.898438 173.625 114.679688 171.101562 C 114.261719 170.222656 113.867188 169.082031 113.722656 167.738281 C 116.511719 170.683594 120.285156 172.402344 121.746094 172.988281 C 121.972656 173.078125 122.203125 173.128906 122.433594 173.128906 C 123.175781 173.128906 123.863281 172.6875 124.160156 171.964844 C 124.539062 171.011719 124.082031 169.9375 123.132812 169.550781 C 119.558594 168.113281 115.386719 165.339844 114.40625 161.863281 C 114.070312 160.675781 114.140625 159.464844 114.601562 158.210938 C 117.480469 161.46875 120.5625 162.945312 123.542969 164.355469 C 124.074219 164.609375 124.605469 164.859375 125.136719 165.121094 C 126.050781 165.574219 127.164062 165.203125 127.621094 164.285156 C 128.074219 163.371094 127.699219 162.253906 126.785156 161.800781 C 126.234375 161.53125 125.679688 161.269531 125.128906 161.003906 C 122.277344 159.660156 119.582031 158.378906 117.136719 155.496094 C 115.394531 153.445312 116.066406 151.300781 117.167969 150.09375 C 118.214844 148.941406 119.96875 148.261719 121.523438 149.347656 C 124.453125 151.386719 131.867188 155.597656 136.527344 156.527344 C 139.46875 157.117188 141.578125 156.320312 143.394531 153.9375 C 146.277344 150.152344 146.578125 141.433594 146.097656 137.605469 C 145.667969 134.160156 147.570312 132.574219 149.328125 132.265625 C 150.972656 131.980469 152.863281 132.722656 153.398438 135.054688 C 153.761719 136.640625 154.113281 138.242188 154.46875 139.859375 C 158.261719 156.984375 162.554688 176.402344 181.910156 190.953125 C 182.617188 191.488281 183.363281 192.003906 184.113281 192.511719 C 171.15625 199.566406 155.109375 202.433594 141.984375 201.519531 C 131.183594 194.070312 121.898438 186 117.535156 179.25 Z M 264.640625 162.183594 C 265.183594 159.558594 264.574219 156.894531 262.820312 154.238281 C 263.3125 151.695312 262.390625 149.230469 260.902344 147.601562 C 259.703125 146.277344 258.210938 145.488281 256.667969 145.210938 C 249.953125 130.992188 236.933594 121.75 221.277344 121.75 C 208.988281 121.75 197.222656 127.367188 189.011719 137.167969 C 188.304688 138.015625 187.023438 138.015625 186.316406 137.167969 C 178.109375 127.367188 166.339844 121.75 154.050781 121.75 C 138.386719 121.75 125.371094 130.992188 118.65625 145.210938 C 117.113281 145.488281 115.625 146.277344 114.425781 147.601562 C 112.9375 149.230469 112.015625 151.695312 112.507812 154.238281 C 110.757812 156.894531 110.144531 159.558594 110.6875 162.183594 C 109.316406 166.429688 110.117188 169.953125 111.164062 172.300781 C 111.246094 175.738281 112.988281 179.476562 115.816406 183.304688 C 117.007812 188.085938 118.738281 193.074219 120.925781 197.984375 C 120.730469 198.109375 120.546875 198.242188 120.375 198.394531 C 118.851562 199.730469 118.296875 201.828125 118.949219 203.75 C 122.957031 215.464844 130.515625 223.566406 141.414062 227.832031 C 142.785156 228.371094 144.195312 228.824219 145.625 229.226562 C 163.921875 243.941406 178.910156 248.265625 185.003906 249.496094 C 185.898438 249.664062 186.785156 249.75 187.664062 249.75 C 188.554688 249.75 189.445312 249.664062 190.324219 249.496094 C 196.4375 248.261719 211.421875 243.941406 229.722656 229.222656 C 231.144531 228.816406 232.550781 228.363281 233.914062 227.832031 C 244.8125 223.566406 252.375 215.464844 256.378906 203.746094 C 257.03125 201.828125 256.472656 199.730469 254.953125 198.394531 C 254.78125 198.242188 254.601562 198.113281 254.417969 197.992188 C 256.59375 193.101562 258.277344 188.128906 259.476562 183.363281 C 262.324219 179.515625 264.082031 175.757812 264.164062 172.300781 C 265.210938 169.953125 266.011719 166.429688 264.640625 162.183594 " fill-opacity="1" fill-rule="nonzero"/></g><g fill="#9f3811" fill-opacity="1"><g transform="translate(86.966578, 158.857366)"><g><path d="M 1.625 -11.9375 L -0.734375 -6.671875 L 2.078125 -4.09375 L 0.3125 -0.15625 L -11.828125 -12.046875 L -9.78125 -16.59375 L 7.265625 -15.625 L 5.421875 -11.515625 Z M -1.21875 -12.25 L -7.59375 -12.953125 L -2.859375 -8.609375 Z M -1.21875 -12.25 "/></g></g></g><g fill="#9f3811" fill-opacity="1"><g transform="translate(95.866328, 140.073054)"><g><path d="M -2 -17.609375 L 12.265625 -7.765625 L 6.078125 1.1875 L 2.4375 0.03125 L 4.609375 -3.09375 L 5.71875 -2.75 L 8.0625 -6.15625 L 5.609375 -7.84375 L 0.890625 -1.03125 L -8.828125 -7.75 Z M 3.421875 -9.375 L -1.796875 -12.96875 L -4.46875 -9.109375 L 0.75 -5.515625 Z M 3.421875 -9.375 "/></g></g></g><g fill="#9f3811" fill-opacity="1"><g transform="translate(106.368522, 125.363773)"><g><path d="M 7.4375 -12.1875 L 9.40625 -9.171875 L 0.984375 -0.59375 L -7.5625 -8.984375 L 1.203125 -17.90625 L 6.21875 -13 L 0.171875 -6.84375 L 2.015625 -5.015625 L 5.59375 -8.671875 L 5.015625 -9.71875 Z M -3.140625 -10.09375 L -1.53125 -8.515625 L 1.875 -11.984375 L 0.265625 -13.5625 Z M -3.140625 -10.09375 "/></g></g></g><g fill="#9f3811" fill-opacity="1"><g transform="translate(119.689063, 112.479777)"><g><path d="M 1.28125 -0.625 L -8.9375 -14.140625 L -5.890625 -16.4375 L 2.484375 -5.34375 L 4.515625 -6.875 L 6.359375 -4.453125 Z M 1.28125 -0.625 "/></g></g></g><g fill="#9f3811" fill-opacity="1"><g transform="translate(129.83893, 104.865776)"><g><path d="M 10.65625 -9.515625 L 11.671875 -6.046875 L 1.109375 -0.28125 L -4.640625 -10.78125 L 6.34375 -16.78125 L 9.71875 -10.625 L 2.15625 -6.484375 L 3.390625 -4.21875 L 7.875 -6.671875 L 7.625 -7.859375 Z M -0.078125 -10.5625 L 1 -8.59375 L 5.265625 -10.9375 L 4.1875 -12.90625 Z M -0.078125 -10.5625 "/></g></g></g><g fill="#9f3811" fill-opacity="1"><g transform="translate(146.135237, 96.335381)"><g><path d="M 1.84375 -10.546875 L 2.625 -8.28125 L 10.1875 -10.875 L 12.53125 -4.0625 L 1.625 -0.3125 L -0.25 -3.3125 L 3.15625 -4.46875 L 3.8125 -3.5625 L 7.9375 -4.984375 L 7.125 -7.3125 L -0.375 -4.734375 L -2.703125 -11.515625 L 8.46875 -15.359375 L 9.515625 -12.3125 L 5.875 -11.0625 L 5.609375 -11.84375 Z M 1.84375 -10.546875 "/></g></g></g><g fill="#9f3811" fill-opacity="1"><g transform="translate(162.706479, 90.930554)"><g><path d="M 3.53125 -10.109375 L 3.9375 -7.734375 L 11.828125 -9.0625 L 13.015625 -1.953125 L 1.65625 -0.03125 L 0.296875 -3.296875 L 3.84375 -3.890625 L 4.34375 -2.890625 L 8.640625 -3.609375 L 8.234375 -6.046875 L 0.40625 -4.734375 L -0.78125 -11.796875 L 10.859375 -13.75 L 11.390625 -10.578125 L 7.609375 -9.9375 L 7.46875 -10.765625 Z M 3.53125 -10.109375 "/></g></g></g><g fill="#9f3811" fill-opacity="1"><g transform="translate(179.971261, 88.338473)"><g/></g></g><g fill="#9f3811" fill-opacity="1"><g transform="translate(196.253115, 88.174534)"><g><path d="M 3.09375 -15.359375 L 6.796875 -14.671875 L 7.046875 -5.265625 L 10.46875 -14 L 15.0625 -13.171875 L 15.390625 -3.859375 L 19.046875 -12.484375 L 22.703125 -11.8125 L 16.34375 3.296875 L 11.8125 2.46875 L 11.4375 -6.171875 L 7.984375 1.765625 L 3.5 0.953125 Z M 3.09375 -15.359375 "/></g></g></g><g fill="#9f3811" fill-opacity="1"><g transform="translate(219.617755, 93.306115)"><g><path d="M 5.40625 -12.140625 L 6.546875 -15.375 L 10.09375 -14.125 L 8.953125 -10.890625 Z M 0.921875 0.609375 L 4.890625 -10.640625 L 8.4375 -9.390625 L 4.46875 1.859375 Z M 0.921875 0.609375 "/></g></g></g><g fill="#9f3811" fill-opacity="1"><g transform="translate(228.694255, 96.474099)"><g><path d="M 8.84375 -6.046875 L 7.765625 -3.890625 L 14.90625 -0.296875 L 11.65625 6.125 L 1.359375 0.9375 L 2.1875 -2.484375 L 5.40625 -0.859375 L 5.203125 0.25 L 9.109375 2.21875 L 10.21875 0 L 3.125 -3.578125 L 6.359375 -9.96875 L 16.90625 -4.65625 L 15.453125 -1.78125 L 12.015625 -3.5 L 12.390625 -4.25 Z M 8.84375 -6.046875 "/></g></g></g><g fill="#9f3811" fill-opacity="1"><g transform="translate(244.124622, 104.524844)"><g><path d="M 21.046875 -5.265625 L 10.953125 8.421875 L 0.78125 0.921875 L 7.84375 -8.65625 L 15.078125 -3.328125 L 18.109375 -7.4375 Z M 9.6875 3.96875 L 13.390625 -1.046875 L 9.09375 -4.21875 L 5.390625 0.796875 Z M 9.6875 3.96875 "/></g></g></g><g fill="#9f3811" fill-opacity="1"><g transform="translate(258.71751, 115.670207)"><g><path d="M 0.453125 0.875 L 9.078125 -7.390625 L 17.71875 1.609375 L 9.09375 9.875 Z M 12.921875 0.734375 L 9.59375 -2.734375 L 5.015625 1.671875 L 8.34375 5.140625 Z M 12.921875 0.734375 "/></g></g></g><g fill="#9f3811" fill-opacity="1"><g transform="translate(270.870334, 128.508938)"><g><path d="M 7.09375 11.328125 L 14.6875 6.34375 L 13.40625 4.375 L 5.8125 9.359375 L 3.703125 6.171875 L 11.296875 1.1875 L 10.015625 -0.78125 L 2.421875 4.203125 L 0.359375 1.0625 L 10.359375 -5.5 L 19.1875 7.953125 L 9.1875 14.515625 Z M 7.09375 11.328125 "/></g></g></g><g fill="#9f3811" fill-opacity="1"><g transform="translate(282.251454, 146.823139)"><g/></g></g><g fill="#9f3811" fill-opacity="1"><g transform="translate(86.182049, 181.242902)"><g><path d="M 0.660156 3.316406 L 1.058594 5.308594 L 6.761719 5.644531 C 7.785156 5.710938 8.773438 5.726562 9.84375 5.746094 L 9.863281 5.839844 C 8.886719 6.285156 7.992188 6.660156 7.09375 7.109375 L 1.929688 9.667969 L 2.335938 11.71875 L 12.996094 12.421875 L 12.675781 10.820312 L 6.53125 10.496094 C 5.515625 10.464844 4.566406 10.460938 3.570312 10.425781 L 3.554688 10.351562 C 4.457031 9.921875 5.328125 9.515625 6.246094 9.078125 L 11.78125 6.328125 L 11.449219 4.671875 L 5.289062 4.273438 C 4.285156 4.199219 3.3125 4.183594 2.320312 4.148438 L 2.300781 4.054688 C 3.214844 3.679688 4.085938 3.292969 5.011719 2.894531 L 10.5625 0.21875 L 10.214844 -1.515625 Z M 0.660156 3.316406 "/></g></g></g><g fill="#9f3811" fill-opacity="1"><g transform="translate(90.032531, 198.638366)"><g><path d="M 1.785156 5.636719 C 2.265625 6.960938 3.085938 7.832031 3.953125 8.488281 L 4.808594 7.511719 C 4.066406 6.972656 3.503906 6.308594 3.160156 5.359375 C 2.492188 3.523438 3.351562 1.773438 5.386719 0.914062 L 7.757812 7.449219 C 8.003906 7.402344 8.355469 7.3125 8.710938 7.183594 C 11.480469 6.179688 12.761719 4.136719 11.867188 1.675781 C 11.046875 -0.574219 8.3125 -1.988281 5.167969 -0.847656 C 1.972656 0.3125 0.851562 3.066406 1.785156 5.636719 Z M 6.558594 0.46875 C 8.519531 -0.0234375 10.070312 0.789062 10.570312 2.164062 C 11.121094 3.683594 10.390625 4.957031 8.445312 5.664062 Z M 6.558594 0.46875 "/></g></g></g><g fill="#9f3811" fill-opacity="1"><g transform="translate(94.587973, 210.463446)"><g/></g></g><g fill="#9f3811" fill-opacity="1"><g transform="translate(97.291001, 216.12956)"><g><path d="M 2.257812 4.464844 C 2.566406 5.007812 3.070312 5.507812 3.527344 5.925781 L 4.480469 4.992188 C 4.195312 4.761719 3.84375 4.414062 3.667969 4.097656 C 3.074219 3.058594 3.503906 2.355469 4.609375 1.726562 L 9.613281 -1.121094 L 10.996094 1.304688 L 12.214844 0.609375 L 10.835938 -1.816406 L 13.359375 -3.253906 L 12.648438 -4.511719 L 10.019531 -3.253906 L 9.136719 -4.609375 L 7.996094 -3.960938 L 8.757812 -2.625 L 3.789062 0.203125 C 2.003906 1.21875 1.167969 2.550781 2.257812 4.464844 Z M 2.257812 4.464844 "/></g></g></g><g fill="#9f3811" fill-opacity="1"><g transform="translate(101.972998, 224.173653)"><g><path d="M 1 1.433594 L 1.992188 2.851562 L 7.425781 -0.945312 C 9.265625 -1.398438 10.375 -0.871094 10.863281 -0.171875 C 11.101562 0.171875 11.214844 0.394531 11.300781 0.75 L 12.730469 0.144531 C 12.6875 -0.214844 12.546875 -0.515625 12.285156 -0.886719 C 11.625 -1.835938 10.339844 -2.214844 8.851562 -2.058594 L 8.820312 -2.105469 L 10.273438 -3.304688 L 9.457031 -4.472656 Z M 1 1.433594 "/></g></g></g><g fill="#9f3811" fill-opacity="1"><g transform="translate(107.534264, 232.112592)"><g><path d="M 2.964844 3.71875 C 3.910156 4.785156 5.144531 5.0625 6.625 5.042969 L 6.664062 5.085938 L 5.542969 6.257812 L 6.5 7.339844 L 14.222656 0.5 L 13.074219 -0.796875 L 7.601562 4.054688 C 6.019531 4.132812 5.144531 3.917969 4.441406 3.121094 C 3.535156 2.097656 3.765625 1.128906 5.203125 -0.140625 L 9.9375 -4.335938 L 8.792969 -5.628906 L 3.902344 -1.296875 C 1.9375 0.441406 1.527344 2.097656 2.964844 3.71875 Z M 2.964844 3.71875 "/></g></g></g><g fill="#9f3811" fill-opacity="1"><g transform="translate(116.922368, 242.367306)"><g><path d="M 3.171875 3.125 C 4.996094 4.734375 6.910156 4.574219 8.015625 3.320312 C 9.308594 1.851562 8.472656 0.300781 7.722656 -1.117188 C 7.144531 -2.210938 6.582031 -3.1875 7.238281 -3.925781 C 7.765625 -4.523438 8.671875 -4.636719 9.65625 -3.769531 C 10.339844 -3.167969 10.628906 -2.402344 10.804688 -1.539062 L 12.175781 -1.828125 C 11.988281 -2.824219 11.5 -3.964844 10.546875 -4.808594 C 8.867188 -6.289062 7.011719 -6.199219 5.933594 -4.976562 C 4.777344 -3.664062 5.496094 -2.09375 6.226562 -0.742188 C 6.792969 0.339844 7.402344 1.488281 6.699219 2.285156 C 6.109375 2.953125 5.132812 3.054688 4.105469 2.152344 C 3.179688 1.335938 2.808594 0.347656 2.617188 -0.785156 L 1.222656 -0.492188 C 1.421875 0.773438 2.074219 2.15625 3.171875 3.125 Z M 3.171875 3.125 "/></g></g></g><g fill="#9f3811" fill-opacity="1"><g transform="translate(125.342633, 249.586098)"><g><path d="M 3.914062 3.113281 C 4.425781 3.480469 5.089844 3.722656 5.679688 3.914062 L 6.15625 2.664062 C 5.800781 2.574219 5.335938 2.402344 5.042969 2.195312 C 4.070312 1.496094 4.167969 0.675781 4.910156 -0.359375 L 8.265625 -5.035156 L 10.535156 -3.40625 L 11.355469 -4.546875 L 9.085938 -6.175781 L 10.78125 -8.539062 L 9.609375 -9.378906 L 7.742188 -7.140625 L 6.375 -8.003906 L 5.613281 -6.9375 L 6.863281 -6.042969 L 3.527344 -1.398438 C 2.332031 0.269531 2.125 1.828125 3.914062 3.113281 Z M 3.914062 3.113281 "/></g></g></g><g fill="#9f3811" fill-opacity="1"><g transform="translate(132.876979, 254.832361)"><g/></g></g><g fill="#9f3811" fill-opacity="1"><g transform="translate(138.197607, 258.017675)"><g><path d="M 1.550781 0.808594 L 3.082031 1.609375 L 7.855469 -7.535156 L 6.324219 -8.335938 Z M 8.085938 -9.816406 C 8.691406 -9.5 9.324219 -9.683594 9.648438 -10.304688 C 9.957031 -10.894531 9.746094 -11.519531 9.140625 -11.835938 C 8.535156 -12.152344 7.902344 -11.96875 7.59375 -11.378906 C 7.269531 -10.757812 7.476562 -10.132812 8.085938 -9.816406 Z M 8.085938 -9.816406 "/></g></g></g><g fill="#9f3811" fill-opacity="1"><g transform="translate(144.792493, 261.517513)"><g><path d="M 1.625 0.644531 L 3.230469 1.28125 L 5.988281 -5.679688 C 7.34375 -6.265625 8.210938 -6.496094 9.199219 -6.101562 C 10.472656 -5.597656 10.71875 -4.625 10.003906 -2.820312 L 7.683594 3.042969 L 9.289062 3.679688 L 11.695312 -2.398438 C 12.667969 -4.851562 12.269531 -6.523438 10.253906 -7.320312 C 8.949219 -7.839844 7.671875 -7.503906 6.394531 -6.96875 L 6.34375 -6.988281 L 6.746094 -8.421875 L 5.421875 -8.949219 Z M 1.625 0.644531 "/></g></g></g><g fill="#9f3811" fill-opacity="1"><g transform="translate(157.723506, 266.324975)"><g/></g></g><g fill="#9f3811" fill-opacity="1"><g transform="translate(163.885591, 268.135585)"><g><path d="M 4.007812 0.996094 C 5.257812 1.226562 6.519531 0.785156 7.640625 0.160156 L 7.695312 0.171875 L 7.621094 1.414062 L 9.023438 1.671875 L 10.179688 -4.566406 C 10.644531 -7.066406 9.90625 -8.925781 7.441406 -9.382812 C 5.816406 -9.683594 4.242188 -9.222656 3.195312 -8.796875 L 3.652344 -7.496094 C 4.554688 -7.886719 5.71875 -8.234375 6.898438 -8.015625 C 8.558594 -7.707031 8.757812 -6.375 8.515625 -5.066406 C 4.109375 -5.382812 1.980469 -4.636719 1.570312 -2.433594 C 1.230469 -0.601562 2.308594 0.679688 4.007812 0.996094 Z M 4.746094 -0.277344 C 3.738281 -0.464844 3.039062 -1.078125 3.253906 -2.238281 C 3.496094 -3.542969 4.8125 -4.167969 8.304688 -3.945312 L 7.78125 -1.105469 C 6.625 -0.414062 5.738281 -0.09375 4.746094 -0.277344 Z M 4.746094 -0.277344 "/></g></g></g><g fill="#9f3811" fill-opacity="1"><g transform="translate(176.582733, 270.232398)"><g/></g></g><g fill="#9f3811" fill-opacity="1"><g transform="translate(182.974431, 270.852833)"><g><path d="M 5.25 4.722656 C 8.441406 4.703125 10.464844 3.039062 10.453125 1.121094 C 10.445312 -0.570312 9.226562 -1.324219 6.832031 -1.308594 L 4.820312 -1.300781 C 3.429688 -1.292969 3.011719 -1.746094 3.007812 -2.410156 C 3.003906 -2.980469 3.289062 -3.324219 3.664062 -3.648438 C 4.121094 -3.421875 4.695312 -3.292969 5.207031 -3.296875 C 7.296875 -3.308594 8.960938 -4.703125 8.949219 -6.90625 C 8.945312 -7.800781 8.597656 -8.558594 8.101562 -9.03125 L 10.210938 -9.042969 L 10.203125 -10.371094 L 6.613281 -10.351562 C 6.25 -10.484375 5.738281 -10.613281 5.167969 -10.609375 C 3.078125 -10.597656 1.300781 -9.164062 1.3125 -6.902344 C 1.316406 -5.667969 1.988281 -4.683594 2.675781 -4.136719 L 2.675781 -4.0625 C 2.144531 -3.679688 1.523438 -2.992188 1.527344 -2.136719 C 1.53125 -1.320312 1.933594 -0.769531 2.484375 -0.449219 L 2.488281 -0.375 C 1.519531 0.257812 0.976562 1.097656 0.980469 1.96875 C 0.988281 3.757812 2.722656 4.734375 5.25 4.722656 Z M 5.199219 -4.472656 C 4.003906 -4.46875 2.992188 -5.410156 2.984375 -6.914062 C 2.976562 -8.433594 3.957031 -9.332031 5.171875 -9.335938 C 6.390625 -9.34375 7.382812 -8.4375 7.390625 -6.9375 C 7.398438 -5.433594 6.378906 -4.480469 5.199219 -4.472656 Z M 5.492188 3.542969 C 3.628906 3.550781 2.503906 2.835938 2.5 1.734375 C 2.496094 1.125 2.796875 0.515625 3.535156 -0.0195312 C 3.988281 0.09375 4.484375 0.148438 4.863281 0.144531 L 6.648438 0.136719 C 8.019531 0.128906 8.761719 0.445312 8.765625 1.394531 C 8.769531 2.480469 7.464844 3.53125 5.492188 3.542969 Z M 5.492188 3.542969 "/></g></g></g><g fill="#9f3811" fill-opacity="1"><g transform="translate(195.945188, 270.564096)"><g><path d="M 1.734375 -0.203125 L 3.453125 -0.402344 L 2.683594 -6.988281 C 3.160156 -8.824219 4.144531 -9.550781 4.992188 -9.648438 C 5.410156 -9.699219 5.660156 -9.6875 6.015625 -9.597656 L 6.160156 -11.144531 C 5.816406 -11.273438 5.492188 -11.292969 5.039062 -11.242188 C 3.886719 -11.105469 2.945312 -10.15625 2.378906 -8.769531 L 2.324219 -8.761719 L 1.953125 -10.613281 L 0.539062 -10.449219 Z M 1.734375 -0.203125 "/></g></g></g><g fill="#9f3811" fill-opacity="1"><g transform="translate(205.526584, 269.407725)"><g><path d="M 5.8125 -1.085938 C 7.183594 -1.398438 8.152344 -2.109375 8.90625 -2.886719 L 8.039062 -3.859375 C 7.414062 -3.1875 6.6875 -2.707031 5.707031 -2.480469 C 3.800781 -2.042969 2.167969 -3.109375 1.5625 -5.234375 L 8.339844 -6.792969 C 8.320312 -7.042969 8.277344 -7.402344 8.191406 -7.773438 C 7.53125 -10.640625 5.664062 -12.160156 3.109375 -11.574219 C 0.773438 -11.035156 -0.960938 -8.492188 -0.210938 -5.234375 C 0.550781 -1.921875 3.148438 -0.46875 5.8125 -1.085938 Z M 1.265625 -6.449219 C 1.015625 -8.460938 2.011719 -9.898438 3.4375 -10.226562 C 5.011719 -10.585938 6.1875 -9.707031 6.652344 -7.691406 Z M 1.265625 -6.449219 "/></g></g></g><g fill="#9f3811" fill-opacity="1"><g transform="translate(218.097384, 266.364262)"><g><path d="M 3.953125 -1.195312 C 5.148438 -1.636719 6.003906 -2.664062 6.648438 -3.769531 L 6.699219 -3.789062 L 7.269531 -2.683594 L 8.609375 -3.179688 L 6.410156 -9.128906 C 5.527344 -11.519531 3.945312 -12.734375 1.59375 -11.867188 C 0.0429688 -11.296875 -1.074219 -10.09375 -1.753906 -9.195312 L -0.699219 -8.308594 C -0.121094 -9.109375 0.703125 -10 1.824219 -10.414062 C 3.410156 -11 4.261719 -9.957031 4.722656 -8.710938 C 0.777344 -6.726562 -0.671875 -4.996094 0.105469 -2.894531 C 0.75 -1.148438 2.332031 -0.597656 3.953125 -1.195312 Z M 3.9375 -2.667969 C 2.972656 -2.3125 2.058594 -2.480469 1.652344 -3.585938 C 1.191406 -4.835938 2 -6.042969 5.117188 -7.640625 L 6.117188 -4.933594 C 5.480469 -3.746094 4.878906 -3.015625 3.9375 -2.667969 Z M 3.9375 -2.667969 "/></g></g></g><g fill="#9f3811" fill-opacity="1"><g transform="translate(230.200348, 261.659586)"><g><path d="M 4.578125 -2.011719 C 5.140625 -2.292969 5.667969 -2.769531 6.109375 -3.203125 L 5.226562 -4.203125 C 4.980469 -3.933594 4.613281 -3.601562 4.289062 -3.441406 C 3.21875 -2.90625 2.539062 -3.371094 1.972656 -4.511719 L -0.601562 -9.660156 L 1.894531 -10.910156 L 1.269531 -12.164062 L -1.230469 -10.917969 L -2.53125 -13.515625 L -3.820312 -12.871094 L -2.707031 -10.179688 L -4.109375 -9.371094 L -3.523438 -8.199219 L -2.148438 -8.886719 L 0.410156 -3.773438 C 1.324219 -1.9375 2.609375 -1.027344 4.578125 -2.011719 Z M 4.578125 -2.011719 "/></g></g></g><g fill="#9f3811" fill-opacity="1"><g transform="translate(238.624863, 257.413928)"><g><path d="M 5.101562 -2.992188 C 6.28125 -3.753906 6.953125 -4.75 7.398438 -5.738281 L 6.253906 -6.355469 C 5.894531 -5.515625 5.371094 -4.816406 4.523438 -4.269531 C 2.878906 -3.210938 0.984375 -3.664062 -0.304688 -5.453125 L 5.539062 -9.21875 C 5.4375 -9.449219 5.277344 -9.769531 5.070312 -10.089844 C 3.476562 -12.566406 1.199219 -13.359375 -1.003906 -11.941406 C -3.015625 -10.644531 -3.785156 -7.664062 -1.972656 -4.851562 C -0.132812 -1.992188 2.800781 -1.511719 5.101562 -2.992188 Z M -1 -6.496094 C -1.914062 -8.304688 -1.464844 -9.992188 -0.234375 -10.785156 C 1.121094 -11.660156 2.527344 -11.230469 3.648438 -9.492188 Z M -1 -6.496094 "/></g></g></g><g fill="#9f3811" fill-opacity="1"><g transform="translate(249.265425, 250.30404)"><g><path d="M 1.355469 -1.101562 L 2.699219 -2.191406 L -1.480469 -7.339844 C -2.066406 -9.140625 -1.621094 -10.285156 -0.957031 -10.824219 C -0.632812 -11.085938 -0.417969 -11.210938 -0.0703125 -11.324219 L -0.777344 -12.707031 C -1.136719 -12.636719 -1.421875 -12.476562 -1.777344 -12.191406 C -2.675781 -11.460938 -2.960938 -10.152344 -2.695312 -8.679688 L -2.738281 -8.644531 L -4.042969 -10.007812 L -5.148438 -9.109375 Z M 1.355469 -1.101562 "/></g></g></g><g fill="#9f3811" fill-opacity="1"><g transform="translate(256.473745, 244.275786)"><g/></g></g><g fill="#9f3811" fill-opacity="1"><g transform="translate(261.219253, 239.882575)"><g><path d="M 4.4375 1.519531 L 5.566406 0.207031 L 2.917969 -2.074219 L 1.527344 -3.222656 C 2.710938 -3.433594 3.6875 -3.894531 4.292969 -4.601562 C 5.84375 -6.398438 5.683594 -9.324219 3.007812 -11.632812 C 0.605469 -13.703125 -1.921875 -13.972656 -3.65625 -11.960938 C -4.441406 -11.054688 -4.679688 -9.730469 -4.710938 -8.527344 L -4.75 -8.484375 L -5.738281 -9.140625 L -6.671875 -8.0625 Z M 3.015625 -5.328125 C 2.566406 -4.808594 1.757812 -4.304688 0.542969 -4.121094 L -3.554688 -7.65625 C -3.601562 -9.027344 -3.394531 -10.027344 -2.824219 -10.6875 C -1.546875 -12.171875 0.117188 -11.742188 1.84375 -10.25 C 3.785156 -8.578125 4.132812 -6.621094 3.015625 -5.328125 Z M 3.015625 -5.328125 "/></g></g></g><g fill="#9f3811" fill-opacity="1"><g transform="translate(270.400306, 228.958202)"><g><path d="M 3.328125 -4.703125 C 4.699219 -6.824219 4.265625 -9.796875 1.394531 -11.648438 C -1.496094 -13.515625 -4.398438 -12.699219 -5.765625 -10.574219 C -7.136719 -8.453125 -6.6875 -5.472656 -3.800781 -3.605469 C -0.925781 -1.75 1.960938 -2.578125 3.328125 -4.703125 Z M 2.117188 -5.484375 C 1.148438 -3.984375 -0.824219 -3.835938 -2.820312 -5.121094 C -4.816406 -6.410156 -5.523438 -8.292969 -4.554688 -9.792969 C -3.585938 -11.292969 -1.570312 -11.4375 0.425781 -10.148438 C 2.421875 -8.863281 3.085938 -6.984375 2.117188 -5.484375 Z M 2.117188 -5.484375 "/></g></g></g><g fill="#9f3811" fill-opacity="1"><g transform="translate(278.028089, 217.035602)"><g><path d="M 1.367188 -3.09375 L 2.191406 -4.949219 L -2.28125 -8.507812 C -3.074219 -9.152344 -3.875 -9.734375 -4.738281 -10.367188 L -4.703125 -10.453125 C -3.644531 -10.257812 -2.699219 -10.046875 -1.707031 -9.898438 L 3.992188 -9.015625 L 4.835938 -10.925781 L -3.472656 -17.636719 L -4.136719 -16.144531 L 0.703125 -12.339844 C 1.515625 -11.730469 2.289062 -11.179688 3.082031 -10.582031 L 3.054688 -10.511719 C 2.066406 -10.679688 1.125 -10.847656 0.121094 -11.019531 L -5.988281 -11.957031 L -6.671875 -10.410156 L -1.863281 -6.539062 C -1.085938 -5.902344 -0.300781 -5.328125 0.492188 -4.726562 L 0.453125 -4.640625 C -0.507812 -4.859375 -1.445312 -5.042969 -2.433594 -5.253906 L -8.511719 -6.257812 L -9.226562 -4.644531 Z M 1.367188 -3.09375 "/></g></g></g><g fill="#9f3811" fill-opacity="1"><g transform="translate(284.896072, 200.596042)"><g><path d="M 1.789062 -5.636719 C 2.15625 -6.992188 1.988281 -8.179688 1.65625 -9.214844 L 0.394531 -8.910156 C 0.6875 -8.042969 0.769531 -7.171875 0.503906 -6.203125 C -0.0078125 -4.3125 -1.71875 -3.378906 -3.875 -3.847656 L -2.054688 -10.558594 C -2.28125 -10.660156 -2.621094 -10.789062 -2.988281 -10.890625 C -5.828125 -11.664062 -8.050781 -10.730469 -8.738281 -8.199219 C -9.363281 -5.890625 -7.941406 -3.160156 -4.714844 -2.285156 C -1.433594 -1.394531 1.070312 -2.996094 1.789062 -5.636719 Z M -5.089844 -4.160156 C -6.980469 -4.886719 -7.777344 -6.445312 -7.394531 -7.855469 C -6.96875 -9.414062 -5.640625 -10.035156 -3.640625 -9.492188 Z M -5.089844 -4.160156 "/></g></g></g><g fill="#9f3811" fill-opacity="1"><g transform="translate(288.042274, 188.188221)"><g><path d="M 0.269531 -1.726562 L 0.539062 -3.433594 L -6.011719 -4.460938 C -7.652344 -5.410156 -8.089844 -6.554688 -7.957031 -7.398438 C -7.890625 -7.8125 -7.816406 -8.050781 -7.632812 -8.367188 L -9.082031 -8.921875 C -9.300781 -8.628906 -9.40625 -8.320312 -9.476562 -7.867188 C -9.65625 -6.722656 -8.992188 -5.5625 -7.808594 -4.644531 L -7.820312 -4.589844 L -9.699219 -4.730469 L -9.921875 -3.324219 Z M 0.269531 -1.726562 "/></g></g></g></svg>